# Obj file Generated by Strata Design 3D CX(TM): http://www.strata.com
                
v 0.000000 603.950317 -0.000013
v 29.482727 0.457821 -29.482727
v -29.482727 0.457821 -29.482727
v -29.482727 0.457823 29.482752
v 29.482727 0.457823 29.482752

vt 0.500000 1.000000
vt 0.500000 0.000000
vt 0.750000 0.000000
vt 1.000000 0.000000
vt 0.000000 0.000000
vt 0.250000 0.000000
vt 1.000000 0.000000
vt 1.000000 1.000000
vt 0.000000 1.000000
vt 0.000000 0.000000

vn 0.000000 0.048795 -0.998809
vn -0.998809 0.048795 -0.000000
vn 0.000000 0.048795 0.998809
vn 0.998809 0.048795 -0.000000
vn 0.000000 0.048795 -0.998809
vn 0.998809 0.048795 -0.000000
vn 0.000000 -1.000000 0.000000
vn 0.000000 0.048795 -0.998809
vn -0.998809 0.048795 -0.000000
vn 0.000000 -1.000000 0.000000
vn -0.998809 0.048795 -0.000000
vn 0.000000 0.048795 0.998809
vn 0.000000 -1.000000 0.000000
vn 0.000000 0.048795 0.998809
vn 0.998809 0.048795 -0.000000
vn 0.000000 -1.000000 0.000000

f 1/1/1 2/2/5 3/3/8
f 1/1/2 3/3/9 4/4/11
f 1/1/3 4/5/12 5/6/14
f 1/1/4 5/6/15 2/2/6
f 2/7/7 5/8/16 4/9/13 3/10/10

# End of File
